<?xml version="1.0" standalone="no"?>
<!DOCTYPE svg PUBLIC "-//W3C//DTD SVG 20010904//EN"
        "http://www.w3.org/TR/2001/REC-SVG-20010904/DTD/svg10.dtd">
<svg version="1.0" xmlns="http://www.w3.org/2000/svg"
     width="1024.000000pt" height="1024.000000pt" viewBox="0 0 1024.000000 1024.000000"
     preserveAspectRatio="xMidYMid meet">

    <g transform="translate(0.000000,1024.000000) scale(0.100000,-0.100000)"
       fill="#000000" stroke="none">
        <path d="M4797 8729 c-169 -10 -451 -51 -572 -83 -154 -40 -379 -114 -383
-125 -2 -6 -7 -9 -11 -7 -14 9 -157 -49 -350 -141 -136 -65 -354 -197 -516
-312 -230 -164 -538 -461 -711 -686 -226 -294 -311 -439 -476 -805 -36 -78
-107 -273 -129 -350 -10 -36 -30 -105 -44 -155 -62 -223 -100 -596 -92 -908
11 -411 82 -778 222 -1148 57 -149 225 -480 329 -646 168 -268 278 -407 500
-629 280 -278 511 -448 851 -625 1106 -574 2437 -489 3500 223 202 136 428
321 563 463 472 494 766 1004 911 1583 123 489 132 1075 25 1577 -32 150 -87
342 -113 395 -11 23 -23 54 -26 71 -4 16 -11 27 -16 24 -5 -4 -6 0 -3 8 3 8
-3 30 -14 48 -10 19 -25 52 -32 74 -17 53 -48 115 -70 140 -10 11 -20 36 -24
56 -7 42 -56 120 -69 112 -6 -3 -7 -1 -3 5 9 16 -15 62 -33 62 -14 0 -14 2 -1
10 14 9 7 14 -13 11 -5 -1 -6 3 -2 9 3 5 -2 22 -13 38 -10 15 -22 35 -25 45
-4 11 -12 15 -18 11 -8 -4 -9 -3 -5 4 6 10 -12 38 -79 127 -9 13 -14 15 -12 5
2 -8 2 -12 0 -8 -2 4 -12 4 -21 0 -15 -5 -15 -4 0 12 17 17 17 19 -8 52 -14
18 -31 31 -37 27 -6 -3 -7 -1 -3 5 7 11 -52 100 -68 101 -5 1 -3 -5 3 -13 9
-10 8 -15 -3 -19 -9 -4 -18 -1 -22 5 -4 7 -3 8 4 4 18 -11 6 50 -15 71 -10 11
-38 44 -63 73 -25 30 -64 74 -87 99 -23 26 -52 58 -65 73 -21 24 -24 25 -38
10 -13 -14 -12 -15 2 -10 16 6 37 -11 52 -42 4 -8 -1 -5 -11 6 -10 12 -31 24
-46 28 -15 4 -35 16 -45 27 -9 12 -23 27 -29 34 -33 34 14 30 54 -5 16 -13 -5
9 -45 48 -63 61 -76 70 -93 62 -13 -8 -19 -7 -19 0 0 7 -7 7 -21 -1 -15 -8
-19 -8 -15 0 11 17 -10 13 -25 -6 -13 -15 -11 -16 24 -9 23 4 37 3 37 -4 0 -6
-25 -10 -59 -10 -65 0 -86 18 -49 42 29 19 17 47 -22 54 -36 8 -42 42 -10 62
21 13 25 8 21 -28 -2 -12 0 -13 7 -1 11 16 32 6 32 -15 0 -8 5 -14 10 -14 20
0 9 18 -29 51 -90 76 -139 106 -129 78 3 -8 13 -13 22 -13 28 3 11 -21 -20
-27 l-29 -7 27 -1 c15 0 30 4 33 9 3 6 11 10 17 10 6 0 8 -3 5 -7 -4 -3 1 -12
11 -19 15 -11 15 -13 -10 -25 -22 -10 -25 -15 -17 -30 6 -13 6 -19 -1 -19 -5
0 -10 5 -10 10 0 6 -18 10 -40 10 -35 0 -40 3 -40 24 0 19 -6 24 -37 29 -21 4
-42 2 -50 -5 -14 -11 -18 -33 -5 -24 4 2 7 -18 7 -47 0 -30 -6 -52 -13 -55 -7
-2 -12 -8 -12 -14 0 -6 7 -7 16 -4 8 3 13 2 10 -3 -3 -5 0 -14 8 -20 10 -9 21
-7 43 5 35 20 63 13 63 -16 0 -11 6 -23 14 -26 19 -7 28 -46 13 -56 -15 -9 90
-104 110 -100 9 2 13 -4 11 -15 -2 -14 3 -17 22 -15 19 1 22 0 10 -8 -12 -7
-5 -19 40 -63 30 -29 93 -95 140 -147 47 -52 90 -99 96 -105 43 -39 266 -359
334 -480 75 -134 159 -306 199 -410 24 -60 49 -123 56 -140 57 -128 155 -602
136 -654 -8 -21 -9 -17 -4 18 4 32 3 42 -6 37 -7 -5 -13 4 -17 24 -4 20 -21
43 -45 62 -33 27 -39 37 -39 70 0 38 0 38 -40 38 l-40 0 0 40 c0 28 -4 40 -14
40 -11 0 -16 15 -18 52 -2 30 -8 53 -15 56 -7 2 -13 -3 -13 -12 0 -9 -4 -16
-10 -16 -5 0 -10 19 -10 43 0 59 -38 97 -98 97 -23 0 -42 5 -42 10 0 6 -18 10
-40 10 -23 0 -40 5 -40 11 0 6 -11 20 -25 31 -21 16 -25 28 -25 69 0 37 -4 49
-15 49 -9 0 -15 -9 -15 -25 0 -30 -11 -32 -33 -7 -21 24 -21 32 0 32 13 0 10
7 -12 30 -23 24 -37 30 -72 30 -24 0 -43 5 -43 10 0 6 -33 10 -80 10 -64 0
-80 3 -80 15 0 11 -11 15 -40 15 l-40 0 -2 58 c-1 35 -3 44 -5 25 -6 -46 -25
-41 -22 5 3 49 1 62 -9 62 -10 0 -8 -101 2 -147 6 -26 13 -33 30 -33 20 0 22
-4 18 -26 -2 -14 -7 -22 -11 -17 -13 18 -29 11 -47 -22 -10 -19 -22 -35 -26
-35 -5 0 -8 -10 -8 -22 0 -12 -5 -37 -12 -55 -10 -27 -10 -38 0 -53 15 -24 16
-41 1 -20 -8 11 -9 8 -5 -15 6 -28 5 -29 -8 -11 -10 12 -13 30 -9 55 3 20 6
50 5 66 0 25 1 27 8 10 8 -18 9 -18 9 5 0 14 -4 34 -8 45 -9 23 -12 7 -41
-220 -10 -78 -22 -151 -28 -162 -25 -47 -141 -69 -200 -39 -67 35 -94 89 -94
189 l0 68 -31 -43 c-32 -45 -145 -178 -161 -189 -5 -4 -5 -12 -2 -18 5 -7 2
-10 -6 -9 -7 2 -12 -3 -10 -10 1 -8 -2 -11 -7 -8 -5 3 -16 -5 -24 -17 -8 -13
-38 -49 -67 -80 -31 -34 -49 -61 -44 -68 4 -7 3 -9 -3 -6 -14 9 -136 -140
-127 -154 4 -7 3 -9 -3 -6 -13 8 -36 -17 -25 -27 4 -4 2 -6 -4 -4 -10 3 -164
-166 -164 -180 0 -4 24 -20 53 -36 88 -48 338 -218 374 -253 43 -43 59 -76 71
-143 5 -32 8 -269 7 -560 -3 -560 -5 -588 -64 -644 -60 -58 -167 -42 -213 33
-23 36 -23 38 -29 556 -3 286 -7 521 -8 523 0 1 -6 2 -12 2 -15 0 -255 149
-326 202 l-53 39 -87 -63 c-49 -35 -116 -81 -150 -103 l-61 -40 -4 -492 c-3
-478 -4 -492 -24 -519 -32 -44 -68 -66 -116 -71 -56 -7 -99 14 -137 67 -51 71
-52 86 -49 605 3 475 3 481 26 529 46 100 146 192 379 351 l31 22 -61 54
c-172 150 -365 342 -382 379 -27 59 -18 156 18 204 52 68 143 95 198 58 15 -9
99 -87 189 -172 152 -145 189 -174 182 -142 -1 8 2 11 9 7 7 -5 8 -10 0 -18
-7 -7 -2 -20 17 -41 l27 -31 30 41 c16 23 60 79 97 124 37 46 65 87 62 92 -3
5 -1 7 4 6 5 -2 33 26 63 62 29 36 83 99 119 140 128 145 144 168 130 186 -11
12 -10 18 5 32 18 16 18 16 6 0 -20 -27 -3 -41 21 -18 12 11 20 21 17 22 -2 2
-17 10 -33 18 -68 35 -97 134 -56 198 19 31 105 82 138 82 7 0 11 3 9 8 -3 4
7 8 21 8 15 1 110 37 212 79 159 67 194 78 247 79 49 1 67 -3 92 -22 26 -19
31 -20 31 -6 0 14 2 15 18 3 9 -7 6 -1 -7 14 -25 28 -43 39 -22 13 8 -10 9
-16 1 -21 -5 -3 -10 -1 -10 4 0 6 -7 11 -16 11 -8 0 -13 4 -10 9 8 12 -174 6
-204 -7 -14 -6 -38 -20 -55 -31 -16 -12 -34 -21 -38 -21 -14 0 20 30 35 31 7
0 0 6 -16 13 l-29 13 25 6 c20 5 24 13 25 43 1 20 6 41 12 47 20 20 11 27 -34
27 -25 0 -45 5 -45 10 0 6 -16 10 -35 10 -24 0 -35 5 -35 15 0 9 9 15 25 15
30 0 32 11 7 33 -15 14 -41 17 -145 17 -106 0 -127 2 -127 15 0 8 7 15 16 15
14 0 14 3 4 15 -8 9 -30 15 -56 15 -32 0 -44 -4 -44 -15 0 -12 -16 -15 -80
-15 l-80 0 0 30 0 30 -80 0 c-47 0 -80 4 -80 10 0 6 47 10 120 10 100 0 120 3
120 15 0 13 -29 15 -200 15 -171 0 -200 2 -200 15 0 11 -11 15 -40 15 -22 0
-40 5 -40 10 0 6 -18 10 -40 10 -38 0 -40 2 -40 30 0 28 -3 30 -35 30 -19 0
-35 5 -35 10 0 6 16 10 35 10 24 0 35 5 35 15 0 10 -10 15 -34 15 -19 0 -37 6
-40 13 -5 10 -7 10 -12 0 -4 -9 -38 -13 -120 -13 -95 0 -114 3 -114 15 0 11
-11 15 -40 15 -73 0 -41 15 37 17 42 2 78 5 81 7 2 3 1 14 -3 25 -6 19 -14 21
-86 21 -46 0 -79 -4 -79 -10 0 -5 -16 -10 -35 -10 -24 0 -35 5 -35 15 0 12
-16 15 -80 15 -47 0 -80 4 -80 10 0 6 -18 10 -40 10 -29 0 -40 4 -40 15 0 11
-11 15 -40 15 -36 0 -40 3 -40 25 0 25 1 25 80 25 44 0 80 4 80 9 0 10 -97 21
-181 21 l-59 0 0 50 0 50 -39 0 c-23 0 -41 5 -44 14 -4 11 -23 13 -69 7 -5 -1
-8 -28 -8 -61 l0 -60 -80 0 -80 0 0 59 c0 46 -4 60 -17 67 -10 4 -22 6 -27 5
-5 -1 -5 6 -1 16 5 10 11 43 15 73 4 30 8 48 10 40 1 -9 5 -5 10 10 11 34 11
43 1 59 -7 12 -13 12 -40 0 -17 -8 -31 -17 -31 -21 0 -12 24 -10 37 3 6 6 17
9 25 6 8 -3 2 -9 -16 -16 -16 -7 -35 -10 -43 -7 -9 4 -12 -1 -10 -17 2 -12 2
-16 0 -9 -6 17 -20 15 -32 -5 -5 -10 -13 -14 -17 -10 -15 15 118 133 137 121
5 -3 7 1 4 8 -2 7 24 35 61 63 37 28 72 55 79 62 7 7 14 10 17 8 2 -2 27 18
56 45 67 63 69 84 16 205 -7 17 -24 46 -37 65 l-25 35 162 11 c169 12 535 2
611 -15 66 -16 125 -22 125 -13 0 5 -6 9 -12 9 -23 1 -70 12 -76 18 -3 3 8 5
24 5 16 0 46 3 67 7 33 5 39 3 44 -16 3 -12 14 -22 27 -22 11 -1 3 -5 -19 -10
-28 -5 -16 -6 40 -3 49 2 72 0 60 -5 -11 -4 -27 -6 -35 -4 -13 4 -13 4 0 -6 8
-6 27 -11 43 -11 15 0 35 -4 45 -9 9 -5 48 -19 86 -31 53 -16 72 -18 80 -9 8
9 8 10 -1 5 -14 -8 -63 10 -63 24 0 5 14 10 30 10 25 0 30 4 30 25 0 20 5 25
25 25 29 0 32 11 8 33 -21 18 -73 12 -73 -10 0 -11 -3 -11 -14 -1 -12 11 -12
15 1 30 8 9 24 18 34 20 11 2 21 7 22 12 3 16 -55 27 -110 21 -44 -5 -53 -4
-53 9 0 9 3 17 8 17 4 1 20 3 36 5 35 4 45 12 27 23 -7 5 11 9 46 9 32 1 69 2
83 3 14 1 36 -2 50 -5 14 -4 3 2 -25 13 -105 41 -427 117 -446 106 -5 -3 -17
-1 -27 4 -25 13 -287 40 -447 45 -71 2 -192 0 -268 -5z m672 -64 c-16 -6 -27
-14 -23 -18 11 -10 86 -9 80 2 -3 5 -16 7 -29 5 -19 -4 -20 -3 -3 4 12 5 34 4
55 -4 20 -6 50 -10 68 -7 23 4 44 -2 77 -21 46 -27 190 -51 156 -27 -12 9 -8
10 15 5 43 -10 42 -12 -12 -20 -26 -3 -55 -10 -63 -14 -9 -5 -35 -3 -59 3 -35
10 -45 9 -48 0 -3 -7 -18 -13 -33 -13 -26 0 -29 -4 -32 -37 l-3 -38 -57 -3
c-32 -2 -66 2 -75 7 -10 6 -12 11 -5 11 7 0 12 13 12 31 l0 31 59 -4 c44 -2
57 0 54 10 -4 8 -30 12 -84 12 l-79 0 0 30 c0 27 -3 30 -32 31 -33 1 -33 1 10
16 39 14 41 16 25 28 -15 11 -12 12 20 2 l37 -12 -31 -10z m-69 8 c-14 -3 -29
-11 -33 -19 -13 -23 -87 -15 -87 9 0 7 4 7 12 -1 17 -17 65 -15 72 3 3 9 17
14 33 14 27 -2 27 -2 3 -6z m200 -9 c0 -2 -11 -4 -25 -4 -14 0 -25 4 -25 9 0
4 11 6 25 3 14 -2 25 -6 25 -8z m-1486 -76 c-5 -8 0 -9 14 -6 13 4 20 2 16 -4
-3 -5 -17 -7 -30 -4 -14 4 -24 2 -24 -4 0 -5 -15 -10 -32 -9 l-33 1 32 11 c17
7 35 15 39 20 12 11 26 8 18 -5z m1811 -8 c-3 -5 -18 -9 -33 -9 l-27 1 30 8
c17 4 31 8 33 9 2 0 0 -3 -3 -9z m-1999 -62 c4 -7 3 -8 -4 -4 -7 4 -12 3 -12
-3 0 -6 -10 -16 -22 -22 -23 -11 -23 -11 1 15 28 30 28 30 37 14z m269 -8 c3
-5 1 -10 -4 -10 -6 0 -11 5 -11 10 0 6 2 10 4 10 3 0 8 -4 11 -10z m-345 -20
c0 -5 -8 -10 -17 -10 -15 0 -16 2 -3 10 19 12 20 12 20 0z m326 -5 c9 -8 26
-15 38 -15 32 0 84 -74 69 -98 -14 -22 -96 -53 -113 -42 -9 6 1 11 31 18 l44
10 -60 2 -60 2 35 13 35 13 -50 2 c-27 1 -42 4 -32 7 11 3 17 14 17 34 0 16 3
28 8 28 19 -3 33 2 27 11 -3 5 -12 7 -20 3 -8 -3 -15 -1 -15 5 0 9 11 17 28
21 2 1 10 -6 18 -14z m-196 1 c0 -2 -7 -7 -16 -10 -8 -3 -12 -2 -9 4 6 10 25
14 25 6z m1684 -2 c25 -10 19 -21 -15 -28 -40 -8 -58 3 -34 21 21 15 27 16 49
7z m-1664 -34 c0 -5 -2 -10 -4 -10 -3 0 -8 5 -11 10 -3 6 -1 10 4 10 6 0 11
-4 11 -10z m1163 -7 c-24 -2 -62 -2 -85 0 -24 2 -5 4 42 4 47 0 66 -2 43 -4z
m190 0 c-7 -2 -21 -2 -30 0 -10 3 -4 5 12 5 17 0 24 -2 18 -5z m-1389 -9 c17
-7 22 -34 6 -34 -5 0 -10 4 -10 8 0 5 -10 14 -22 20 -17 8 -19 11 -6 11 9 1
23 -2 32 -5z m1480 -3 c4 -5 -3 -7 -14 -4 -23 6 -26 13 -6 13 8 0 17 -4 20 -9z
m-1427 -37 c-3 -3 -12 -4 -19 -1 -8 3 -5 6 6 6 11 1 17 -2 13 -5z m1798 -4
l30 -8 -30 0 c-16 0 -41 4 -55 8 l-25 8 25 0 c14 0 39 -4 55 -8z m-1758 -16
c-3 -3 -12 -4 -19 -1 -8 3 -5 6 6 6 11 1 17 -2 13 -5z m50 0 c-3 -3 -12 -4
-19 -1 -8 3 -5 6 6 6 11 1 17 -2 13 -5z m1738 -24 c7 -11 -16 -11 -60 0 -28 7
-28 8 12 9 23 0 45 -3 48 -9z m-1715 -10 c13 -9 13 -10 0 -9 -8 0 -24 4 -35 9
l-20 9 20 0 c11 0 27 -4 35 -9z m-257 -211 c42 -19 71 -72 62 -116 -8 -43 -67
-151 -129 -238 -181 -254 -342 -606 -416 -910 -52 -214 -69 -334 -76 -555 -11
-290 17 -532 90 -800 63 -229 104 -339 200 -530 225 -448 597 -896 996 -1200
501 -382 1058 -573 1670 -573 321 0 647 59 880 158 103 44 142 50 186 29 48
-23 74 -67 74 -127 0 -82 -36 -136 -199 -297 -236 -235 -526 -447 -793 -581
-665 -333 -1374 -437 -2043 -298 -615 126 -1131 398 -1564 822 -291 286 -455
508 -644 872 -267 515 -383 1059 -349 1642 27 454 108 758 321 1194 156 321
423 681 682 919 295 271 574 460 851 576 88 37 141 40 201 13z m3191 -234 c-4
-8 -10 -12 -15 -9 -14 8 -10 24 6 24 9 0 12 -6 9 -15z m231 -65 c4 -6 1 -19
-7 -28 -12 -15 -11 -16 4 -4 15 12 20 12 33 -2 15 -14 15 -17 1 -22 -8 -3 -20
-2 -27 2 -8 5 -10 3 -4 -7 4 -8 -1 -5 -13 6 -11 11 -23 30 -27 43 -5 18 -2 22
14 22 11 0 23 -5 26 -10z m-2980 -59 c-3 -6 -11 -11 -17 -11 -6 0 -6 6 2 15
14 17 26 13 15 -4z m2915 -20 c0 -5 -7 -11 -15 -15 -9 -3 -15 0 -15 9 0 8 7
15 15 15 8 0 15 -4 15 -9z m-2987 -41 c-3 -12 -8 -19 -11 -16 -5 6 5 36 12 36
2 0 2 -9 -1 -20z m2927 -40 c0 -5 -2 -10 -4 -10 -3 0 -8 5 -11 10 -3 6 -1 10
4 10 6 0 11 -4 11 -10z m305 -45 c11 -4 25 -7 32 -6 7 1 17 -8 23 -19 6 -12
20 -30 31 -41 11 -11 17 -24 14 -29 -8 -13 -45 -13 -45 0 0 5 7 7 15 4 11 -5
13 -2 9 10 -4 10 -12 15 -19 12 -15 -6 -27 18 -19 38 4 10 -4 13 -33 11 -34
-2 -38 1 -40 23 0 14 2 21 5 15 4 -5 16 -13 27 -18z m144 -153 c-14 -5 -11
-20 6 -25 11 -4 11 -5 -2 -3 -12 1 -18 11 -19 34 -2 29 0 31 11 15 8 -10 9
-19 4 -21z m140 -177 c0 -5 -11 3 -24 18 -14 15 -25 33 -25 40 0 7 11 -1 25
-18 13 -16 24 -34 24 -40z m-2169 -25 c0 -5 -16 -10 -35 -10 -19 0 -35 5 -35
10 0 6 16 10 35 10 19 0 35 -4 35 -10z m2213 -13 c13 -20 13 -25 0 -42 -15
-19 -15 -19 -10 4 3 13 2 33 -4 43 -14 26 -4 22 14 -5z m-23 -22 c0 -5 -5 -3
-10 5 -5 8 -10 20 -10 25 0 6 5 3 10 -5 5 -8 10 -19 10 -25z m110 -116 c0 -7
-8 -4 -20 9 -11 12 -20 29 -20 38 0 13 5 11 20 -9 11 -14 20 -31 20 -38z m225
-399 c3 -6 -1 -7 -9 -4 -18 7 -21 14 -7 14 6 0 13 -4 16 -10z m-1440 -10 c3
-5 2 -10 -4 -10 -5 0 -13 5 -16 10 -3 6 -2 10 4 10 5 0 13 -4 16 -10z m-68
-16 c-3 -3 -12 -4 -19 -1 -8 3 -5 6 6 6 11 1 17 -2 13 -5z m-242 -74 c13 -6
15 -9 5 -9 -8 0 -22 4 -30 9 -18 12 -2 12 25 0z m8 -33 c-2 -4 -14 -5 -25 -1
-17 5 -20 3 -14 -12 5 -15 4 -16 -5 -7 -16 16 -4 31 25 29 13 0 22 -5 19 -9z
m-65 -67 c-15 -24 -19 -21 -11 8 3 12 9 19 14 16 5 -3 3 -14 -3 -24z m30 -225
c-3 -3 -9 2 -12 12 -6 14 -5 15 5 6 7 -7 10 -15 7 -18z m739 -267 c-3 -8 -6
-5 -6 6 -1 11 2 17 5 13 3 -3 4 -12 1 -19z m20 -40 c-3 -7 -5 -2 -5 12 0 14 2
19 5 13 2 -7 2 -19 0 -25z m-61 -112 c0 -16 -4 -22 -14 -19 -11 5 -11 7 0 14
7 5 9 9 5 9 -5 0 -5 5 -2 10 9 15 11 12 11 -14z"/>
        <path d="M4160 8425 c0 -14 5 -25 10 -25 6 0 10 2 10 4 0 2 3 11 6 19 3 8 -2
17 -10 20 -12 5 -16 0 -16 -18z"/>
        <path d="M6066 8546 c21 -15 30 -14 19 3 -3 6 -14 11 -23 11 -13 0 -13 -2 4
-14z"/>
        <path d="M6100 8520 c0 -6 11 -8 26 -4 21 5 25 4 19 -6 -5 -8 -4 -11 3 -6 6 3
30 0 54 -8 37 -13 40 -13 23 0 -36 27 -125 44 -125 24z"/>
        <path d="M6269 8476 c23 -13 23 -14 5 -24 -21 -13 -11 -15 24 -6 l23 7 -28 18
c-15 11 -32 19 -38 19 -5 -1 1 -7 14 -14z"/>
        <path d="M6319 8433 c-13 -17 -13 -17 6 -3 11 8 22 16 24 17 2 2 0 3 -6 3 -6
0 -17 -8 -24 -17z"/>
        <path d="M6370 8430 c8 -5 20 -10 25 -10 6 0 3 5 -5 10 -8 5 -19 10 -25 10 -5
0 -3 -5 5 -10z"/>
        <path d="M6000 8410 c0 -5 5 -10 10 -10 6 0 10 5 10 10 0 6 -4 10 -10 10 -5 0
-10 -4 -10 -10z"/>
        <path d="M6515 8350 c-18 -8 -17 -9 8 -9 15 -1 27 4 27 9 0 12 -8 12 -35 0z"/>
        <path d="M6565 8341 c-9 -15 15 -25 28 -12 9 9 7 10 -7 5 -13 -5 -17 -4 -12 4
4 7 5 12 2 12 -3 0 -7 -4 -11 -9z"/>
        <path d="M6076 8311 c-3 -3 6 -8 20 -9 13 -1 24 2 24 6 0 10 -38 13 -44 3z"/>
        <path d="M6652 8294 c10 -10 20 -16 22 -13 3 3 -5 11 -17 18 -21 13 -21 12 -5
-5z"/>
        <path d="M6000 8291 c0 -8 41 -23 47 -17 2 1 -8 8 -22 14 -14 6 -25 8 -25 3z"/>
        <path d="M6695 8270 c3 -6 1 -10 -6 -10 -7 0 -10 -3 -6 -6 3 -3 13 -2 22 4 16
8 16 9 1 15 -10 4 -15 3 -11 -3z"/>
        <path d="M6766 8225 c4 -8 1 -15 -7 -15 -7 0 -10 -2 -7 -5 3 -3 15 -2 26 2 21
8 21 9 2 21 -16 10 -18 9 -14 -3z"/>
        <path d="M6185 8220 c3 -5 11 -10 16 -10 6 0 7 5 4 10 -3 6 -11 10 -16 10 -6
0 -7 -4 -4 -10z"/>
        <path d="M6238 8188 c6 -6 18 -8 28 -6 14 3 12 5 -9 10 -19 3 -25 2 -19 -4z"/>
        <path d="M6830 8191 c0 -6 6 -11 13 -11 8 0 7 -4 -3 -10 -9 -6 -10 -10 -3 -10
19 0 24 17 8 30 -10 9 -15 9 -15 1z"/>
        <path d="M6398 8153 c6 -2 18 -2 25 0 6 3 1 5 -13 5 -14 0 -19 -2 -12 -5z"/>
        <path d="M6360 8140 c0 -5 5 -10 11 -10 5 0 7 5 4 10 -3 6 -8 10 -11 10 -2 0
-4 -4 -4 -10z"/>
        <path d="M6914 8131 c4 -6 16 -16 28 -22 15 -8 18 -8 14 0 -4 6 -16 16 -28 22
-15 8 -18 8 -14 0z"/>
        <path d="M6887 8119 c7 -7 15 -10 18 -7 3 3 -2 9 -12 12 -14 6 -15 5 -6 -5z"/>
        <path d="M6967 8094 c-8 -8 3 -34 14 -34 11 0 12 27 0 34 -4 3 -11 3 -14 0z"/>
        <path d="M6550 8040 c0 -4 23 -20 52 -35 57 -30 111 -66 116 -77 2 -5 10 -8
18 -8 8 0 14 -4 14 -10 0 -5 18 -19 40 -30 33 -17 43 -18 60 -8 28 18 25 31
-5 24 -27 -7 -35 8 -9 18 11 4 14 17 12 43 -2 31 -7 39 -25 41 -13 2 -23 8
-23 13 0 5 -18 9 -40 9 -22 0 -40 -4 -40 -10 0 -5 18 -10 40 -10 l40 0 0 -41
c0 -30 -3 -38 -12 -32 -7 4 -21 6 -32 4 -10 -1 -16 2 -12 7 3 5 -7 12 -22 16
-15 3 -34 10 -42 15 -22 15 -2 27 20 13 11 -7 20 -8 20 -3 0 12 -37 24 -49 17
-11 -7 -61 14 -61 26 0 4 7 8 15 8 8 0 15 5 15 10 0 13 -17 13 -25 1 -3 -6
-17 -6 -35 -1 -17 5 -30 5 -30 0z m230 -120 c0 -5 -5 -10 -11 -10 -5 0 -7 5
-4 10 3 6 8 10 11 10 2 0 4 -4 4 -10z"/>
        <path d="M4500 7940 c0 -5 5 -10 10 -10 6 0 10 5 10 10 0 6 -4 10 -10 10 -5 0
-10 -4 -10 -10z"/>
        <path d="M7218 7898 c10 -13 10 -17 0 -21 -8 -2 -9 -8 -4 -13 5 -5 11 -4 13 4
4 10 8 10 19 1 8 -7 14 -7 14 -1 0 5 -12 18 -27 28 -22 14 -25 14 -15 2z"/>
        <path d="M6950 7812 c0 -7 -7 -12 -16 -12 -8 0 -12 -4 -9 -10 3 -5 10 -10 15
-10 10 0 22 31 15 38 -3 3 -5 0 -5 -6z"/>
        <path d="M4480 7730 l0 -50 40 0 40 0 0 50 0 50 -40 0 -40 0 0 -50z"/>
        <path d="M6950 7765 c0 -2 11 -10 25 -19 20 -13 25 -14 25 -2 0 7 -11 16 -25
18 -14 3 -25 4 -25 3z"/>
        <path d="M7366 7736 c3 -8 13 -17 22 -21 13 -5 13 -2 -3 15 -21 24 -26 25 -19
6z"/>
        <path d="M5040 7455 c0 -12 16 -15 80 -15 64 0 80 3 80 15 0 12 -16 15 -80 15
-64 0 -80 -3 -80 -15z"/>
        <path d="M5270 7450 c0 -5 20 -10 45 -10 25 0 45 5 45 10 0 6 -20 10 -45 10
-25 0 -45 -4 -45 -10z"/>
        <path d="M5760 7215 c0 -12 16 -15 80 -15 64 0 80 3 80 15 0 12 -16 15 -80 15
-64 0 -80 -3 -80 -15z"/>
        <path d="M6880 6901 c0 -5 7 -12 16 -15 14 -5 15 -4 4 9 -14 17 -20 19 -20 6z"/>
        <path d="M6807 6844 c-4 -4 -7 -15 -7 -25 0 -10 -10 -21 -22 -25 -19 -6 -19
-7 -5 -16 19 -10 41 -2 32 12 -7 11 30 32 40 22 4 -4 6 2 3 13 -3 20 -28 31
-41 19z"/>
        <path d="M6875 6840 c-3 -5 1 -10 9 -10 9 0 16 5 16 10 0 6 -4 10 -9 10 -6 0
-13 -4 -16 -10z"/>
        <path d="M7120 6810 c0 -6 7 -10 15 -10 8 0 15 2 15 4 0 2 -7 6 -15 10 -8 3
-15 1 -15 -4z"/>
        <path d="M7097 6733 c-4 -3 -2 -12 4 -20 18 -21 23 -143 10 -248 -12 -93 -8
-155 9 -155 5 0 4 14 -2 31 -8 23 -7 48 2 97 16 81 22 209 10 231 -13 24 -23
55 -22 64 2 9 -3 9 -11 0z"/>
        <path d="M7193 6630 c0 -25 2 -35 4 -22 2 12 2 32 0 45 -2 12 -4 2 -4 -23z"/>
        <path d="M7440 6495 c0 -11 11 -15 40 -15 29 0 40 4 40 15 0 11 -11 15 -40 15
-29 0 -40 -4 -40 -15z"/>
        <path d="M7760 6175 c0 -11 11 -15 40 -15 29 0 40 4 40 15 0 11 -11 15 -40 15
-29 0 -40 -4 -40 -15z"/>
        <path d="M7920 6095 c0 -8 7 -15 16 -15 14 0 14 3 4 15 -7 8 -14 15 -16 15 -2
0 -4 -7 -4 -15z"/>
        <path d="M8013 5953 c-18 -6 -16 -33 1 -33 19 0 31 19 20 30 -5 4 -15 5 -21 3z"/>
        <path d="M8091 5934 c0 -11 3 -14 6 -6 3 7 2 16 -1 19 -3 4 -6 -2 -5 -13z"/>
        <path d="M8080 5812 c0 -29 4 -52 9 -52 8 0 3 90 -5 99 -2 2 -4 -19 -4 -47z"/>
        <path d="M8112 5820 c0 -14 2 -19 5 -12 2 6 2 18 0 25 -3 6 -5 1 -5 -13z"/>
        <path d="M27 103 c-25 -4 -27 -8 -27 -54 0 -48 1 -49 30 -49 30 0 30 1 30 55
0 30 -1 54 -2 54 -2 -1 -15 -4 -31 -6z"/>
    </g>
    <defs>
        <linearGradient id="gradient" x1="0%" y1="0%" x2="100%" y2="0%">

        </linearGradient>

    </defs>
</svg>
