<?xml version="1.0" standalone="no"?>
<!DOCTYPE svg PUBLIC "-//W3C//DTD SVG 20010904//EN"
        "http://www.w3.org/TR/2001/REC-SVG-20010904/DTD/svg10.dtd">
<svg version="1.0" xmlns="http://www.w3.org/2000/svg"
     width="32px" height="32px" viewBox="0 0 781.000000 728.000000"
     preserveAspectRatio="xMidYMid meet">

    <g transform="translate(0.000000,728.000000) scale(0.100000,-0.100000)"
       fill="#ffffff" stroke="none">
        <path d="M3585 6119 c-283 -16 -511 -65 -795 -171 -404 -151 -733 -372 -1066
-718 -82 -84 -159 -182 -238 -300 -176 -264 -268 -448 -360 -722 -101 -304
-136 -509 -143 -833 -5 -245 8 -387 57 -615 187 -873 780 -1633 1560 -1998
380 -178 682 -245 1115 -246 385 0 676 48 1014 170 557 202 1028 574 1354
1070 140 213 299 599 345 834 30 151 47 438 33 531 -7 40 -14 75 -17 78 -10
11 -23 -25 -29 -83 -20 -191 -74 -393 -174 -656 -17 -46 -70 -139 -152 -268
-9 -16 -22 -22 -39 -20 -24 3 -25 6 -26 73 -1 39 -7 95 -14 125 -12 58 -27
248 -29 362 l-1 66 -97 -1 c-54 0 -105 1 -113 4 -13 3 -16 -16 -21 -121 -4
-69 -9 -136 -12 -150 -3 -14 -9 -42 -12 -64 l-6 -38 -38 64 c-79 135 -185 261
-264 313 -15 9 -33 30 -41 47 -14 28 -14 31 19 74 19 25 37 58 40 72 3 15 10
41 16 57 21 60 21 62 -3 68 -13 4 -38 7 -57 7 l-33 0 3 66 4 66 -72 2 -72 1
-3 -65 -3 -65 -39 -3 c-61 -5 -62 9 -6 79 28 34 49 68 47 74 -3 6 27 10 85 10
88 0 90 1 117 31 25 28 50 109 37 121 -3 3 -79 6 -170 8 l-166 3 0 -24 c0 -32
18 -75 42 -101 l21 -23 -44 0 c-25 0 -54 -7 -65 -15 -32 -24 -52 -17 -21 8 19
16 27 32 27 55 0 41 -75 188 -135 264 -102 130 -309 257 -462 283 -92 16 -281
13 -338 -4 -95 -29 -155 -57 -232 -108 -46 -30 -83 -58 -83 -63 0 -4 -24 -33
-54 -64 -61 -62 -108 -151 -125 -237 -12 -57 -8 -82 17 -111 13 -16 10 -16
-45 -11 -32 3 -60 7 -62 9 -1 1 7 13 18 25 24 26 44 89 39 122 -2 15 -9 21
-23 19 -79 -10 -172 -12 -242 -5 l-83 9 0 -42 c0 -82 77 -142 183 -144 20 0
37 -4 37 -10 0 -6 -27 -10 -60 -10 l-60 0 0 -70 c0 -76 -7 -83 -70 -78 -65 5
-110 -2 -110 -17 0 -9 25 -65 55 -125 63 -125 63 -130 -8 -179 -92 -64 -224
-222 -282 -338 -20 -41 -36 -62 -39 -53 -2 8 -8 94 -11 192 l-7 176 -97 -1
c-53 0 -103 1 -111 4 -13 3 -16 -16 -21 -121 -4 -69 -16 -181 -27 -250 -14
-82 -19 -146 -15 -186 5 -57 4 -62 -16 -69 -26 -8 -51 -53 -52 -97 -1 -18 -4
-44 -8 -57 -6 -23 -11 -19 -85 60 -210 226 -376 505 -504 849 -98 265 -139
464 -153 760 -9 182 -8 241 5 380 20 193 82 460 146 622 68 171 197 388 330
552 30 37 67 85 81 105 33 45 218 200 319 268 300 201 470 282 720 342 47 11
131 34 186 50 55 17 122 35 149 41 45 10 296 40 338 40 10 0 16 4 13 9 -5 7
-155 24 -321 35 -27 2 -113 0 -190 -5z m1319 -2628 c14 -22 28 -51 31 -64 6
-24 4 -26 -38 -32 -25 -4 -50 -4 -55 -1 -5 3 -13 26 -16 50 -13 88 35 116 78
47z m-1051 -24 c9 -57 -2 -77 -42 -77 -43 0 -55 14 -48 55 7 46 34 77 61 73
16 -2 22 -14 29 -51z m799 5 c5 -19 8 -50 6 -70 -3 -40 -24 -50 -75 -37 -24 6
-25 9 -21 60 5 63 22 87 57 83 19 -2 27 -11 33 -36z m-552 13 c6 -8 12 -35 13
-61 2 -47 1 -48 -32 -55 -54 -11 -64 -3 -57 48 3 24 10 53 16 63 13 23 43 26
60 5z m268 -12 c5 -10 13 -39 16 -65 l7 -48 -50 0 -51 0 0 39 c0 60 15 91 44
91 14 0 29 -8 34 -17z m-788 -325 c0 -4 -14 -8 -30 -8 -35 0 -45 17 -35 58 l7
27 29 -35 c16 -19 29 -38 29 -42z m1887 -660 c11 -13 26 -33 32 -45 9 -18 8
-24 -11 -37 -34 -24 -67 -20 -78 10 -11 29 -13 78 -3 87 13 14 40 7 60 -15z
m-2241 -26 c16 -10 25 -79 13 -108 -8 -22 -13 -25 -42 -19 -45 10 -61 28 -53
60 7 26 48 75 63 75 4 0 13 -4 19 -8z m2058 -21 c9 -10 19 -34 23 -53 5 -35 5
-35 -38 -42 -35 -6 -46 -4 -56 10 -17 24 -16 55 3 82 19 27 45 28 68 3z
m-1849 -27 c24 -10 36 -49 29 -94 -6 -37 -8 -39 -38 -34 -65 11 -76 15 -76 27
0 21 38 95 52 100 7 3 14 6 15 6 1 1 9 -2 18 -5z m1604 -11 c12 -10 24 -34 27
-54 l6 -37 -52 -11 c-28 -6 -56 -9 -61 -5 -5 3 -9 27 -9 54 0 36 5 52 18 59
25 15 47 13 71 -6z m-1311 -40 c13 -18 16 -52 6 -77 -5 -12 -20 -16 -59 -16
-30 0 -56 4 -59 8 -8 14 13 79 31 97 19 19 61 13 81 -12z m1047 2 c31 -30 34
-80 6 -95 -32 -17 -79 -12 -91 9 -13 25 -2 82 18 99 23 18 40 15 67 -13z
m-791 -1 c10 -9 16 -33 16 -60 0 -43 -1 -44 -32 -44 -61 0 -78 10 -78 42 0 31
38 78 64 78 8 0 22 -7 30 -16z m231 -4 c10 -11 18 -36 19 -57 l1 -38 -46 -3
c-43 -3 -47 -1 -53 23 -18 71 36 122 79 75z m305 5 c16 -20 29 -80 20 -95 -8
-13 -84 -19 -95 -8 -11 11 -8 88 5 103 16 19 54 19 70 0z"/>
        <path d="M5862 5067 c-5 -7 -24 -64 -41 -127 -18 -63 -48 -162 -67 -219 -43
-131 -43 -139 -1 -145 125 -19 254 -13 279 12 7 7 2 29 -16 67 -18 41 -116
385 -116 410 0 10 -30 12 -38 2z"/>
        <path d="M2782 5057 c-5 -7 -24 -64 -41 -127 -18 -63 -48 -162 -67 -219 -43
-131 -43 -139 -1 -145 125 -19 254 -13 279 12 7 7 2 29 -16 67 -18 41 -116
385 -116 410 0 10 -30 12 -38 2z"/>
        <path d="M3437 4723 c-3 -5 -17 -51 -32 -103 -14 -52 -40 -137 -57 -188 -19
-60 -27 -97 -21 -103 14 -14 229 -17 243 -3 8 8 5 24 -11 60 -11 27 -34 101
-50 164 -16 63 -34 130 -40 148 -10 31 -23 41 -32 25z"/>
        <path d="M5281 4619 c-6 -13 -26 -78 -45 -144 -19 -66 -42 -139 -50 -162 -14
-40 -14 -43 4 -53 10 -5 59 -10 110 -11 116 -2 128 6 99 71 -11 25 -35 103
-53 173 -36 140 -49 165 -65 126z"/>
        <path d="M5795 4528 c-2 -7 -5 -100 -7 -206 l-3 -193 83 3 84 3 3 175 c1 96 4
186 6 200 4 25 3 25 -79 28 -60 2 -83 -1 -87 -10z"/>
        <path d="M2715 4518 c-2 -7 -5 -100 -7 -206 l-3 -193 83 3 84 3 3 175 c1 96 4
186 6 200 4 25 3 25 -79 28 -60 2 -83 -1 -87 -10z"/>
        <path d="M4293 4334 c-33 -16 -63 -66 -63 -103 0 -39 28 -90 62 -111 39 -25
102 -23 144 5 29 19 26 32 -4 16 -42 -22 -92 -13 -128 23 -57 57 -43 125 34
166 34 17 35 19 12 19 -14 0 -39 -7 -57 -15z"/>
        <path d="M3385 4278 c-2 -7 -5 -82 -7 -166 -3 -153 -3 -153 20 -159 21 -5 100
1 107 9 2 1 5 75 6 163 l4 160 -63 3 c-44 2 -64 -1 -67 -10z"/>
        <path d="M5230 4088 c0 -73 -3 -143 -6 -155 -6 -22 -4 -23 60 -23 l66 0 0 118
c0 64 3 134 6 155 l7 37 -67 0 -66 0 0 -132z"/>
        <path d="M4316 4029 c-4 -37 -3 -66 2 -71 19 -19 27 0 27 63 0 84 -20 89 -29
8z"/>
        <path d="M5664 4076 c-9 -24 5 -86 27 -123 32 -51 117 -68 244 -50 76 12 80
13 106 52 29 43 44 102 30 123 -6 10 -26 11 -102 1 -86 -10 -220 -7 -276 8
-16 3 -25 0 -29 -11z"/>
        <path d="M2584 4066 c-9 -24 5 -86 27 -123 32 -51 117 -68 244 -50 76 12 80
13 106 52 29 43 44 102 30 123 -6 10 -26 11 -102 1 -86 -10 -220 -7 -276 8
-16 3 -25 0 -29 -11z"/>
        <path d="M3277 3907 c-8 -23 5 -74 27 -101 29 -37 96 -49 185 -36 50 8 71 17
88 35 24 28 41 92 27 105 -5 5 -45 5 -89 -1 -72 -8 -152 -5 -211 7 -12 2 -24
-2 -27 -9z"/>
        <path d="M5858 3872 l-88 -3 0 -143 0 -143 31 -7 c17 -3 62 -6 100 -6 l68 0
-2 152 c-1 92 -6 152 -12 152 -5 1 -49 0 -97 -2z"/>
        <path d="M2778 3862 l-88 -3 0 -143 0 -143 31 -7 c17 -3 62 -6 100 -6 l68 0
-2 152 c-1 92 -6 152 -12 152 -5 1 -49 0 -97 -2z"/>
        <path d="M5130 3842 c0 -38 31 -93 57 -103 27 -10 156 -10 192 0 33 9 62 51
64 91 l2 33 -157 1 -158 1 0 -23z"/>
        <path d="M3360 3626 c0 -127 -5 -118 77 -131 81 -13 83 -10 83 126 l0 119 -80
0 -80 0 0 -114z"/>
        <path d="M5278 3703 l-68 -4 0 -105 c0 -104 0 -105 27 -115 15 -5 49 -9 76 -7
l50 3 4 75 c4 79 -4 161 -15 158 -4 -1 -37 -3 -74 -5z"/>
        <path d="M6040 3558 c-30 -12 -170 -15 -297 -6 l-92 7 3 -48 c1 -30 13 -66 30
-94 25 -43 32 -48 97 -68 58 -17 84 -20 141 -14 39 3 82 14 95 22 49 32 89
159 61 195 -10 13 -18 14 -38 6z"/>
        <path d="M2960 3548 c-30 -12 -170 -15 -297 -6 l-92 7 3 -48 c1 -30 13 -66 30
-94 25 -43 32 -48 97 -68 58 -17 84 -20 141 -14 39 3 82 14 95 22 49 32 89
159 61 195 -10 13 -18 14 -38 6z"/>
        <path d="M5780 3235 c0 -45 -3 -102 -6 -127 -6 -44 -6 -46 26 -57 48 -16 126
-14 144 5 11 11 16 35 16 82 0 37 3 91 7 121 l6 54 -49 -5 c-27 -4 -70 -3 -96
1 l-48 8 0 -82z"/>
        <path d="M2700 3225 c0 -45 -3 -102 -6 -127 -6 -44 -6 -46 26 -57 48 -16 126
-14 144 5 11 11 16 35 16 82 0 37 3 91 7 121 l6 54 -49 -5 c-27 -4 -70 -3 -96
1 l-48 8 0 -82z"/>
        <path d="M5663 2997 c12 -120 77 -181 192 -181 91 0 150 33 188 103 15 29 26
59 23 66 -5 15 -61 24 -171 29 -73 3 -153 15 -214 32 -24 7 -24 7 -18 -49z"/>
        <path d="M2583 2987 c12 -120 77 -181 192 -181 91 0 150 33 188 103 15 29 26
59 23 66 -5 15 -61 24 -171 29 -73 3 -153 15 -214 32 -24 7 -24 7 -18 -49z"/>
    </g>
</svg>
